<svg enable-background="new 0 0 256 256" height="512" viewBox="0 0 256 256" width="512" xmlns="http://www.w3.org/2000/svg"><g id="Layer_1"><g><g><path d="m98 189.887v-25.887h-42v20.333c0 8.653 7.014 15.667 15.667 15.667h36.446c-5.585 0-10.113-4.528-10.113-10.113z" fill="#ede49d"/><path d="m158 164v25.887c0 5.585-4.528 10.113-10.113 10.113h36.446c8.653 0 15.667-7.014 15.667-15.667v-20.333z" fill="#d3ba2a"/><path d="m158 189.887v-25.887h-60v25.887c0 5.585 4.528 10.113 10.113 10.113h39.774c5.585 0 10.113-4.528 10.113-10.113z" fill="#eee045"/></g><g><path d="m184.333 203h-112.666c-10.293 0-18.667-8.374-18.667-18.667v-20.333c0-1.657 1.343-3 3-3h144c1.657 0 3 1.343 3 3v20.333c0 10.293-8.374 18.667-18.667 18.667zm-125.333-36v17.333c0 6.984 5.683 12.667 12.667 12.667h112.666c6.984 0 12.667-5.683 12.667-12.667v-17.333z" fill="#1c2d6b"/></g><g><path d="m94.094 160.303c0-4.586 1.616-8.303 3.609-8.303h-39.401c-4.585 0-8.302 3.717-8.302 8.302v.001c0 9.697 9.506 13.697 15.599 13.697 7.798 0 7.798-8 15.596-8 7.799 0 7.799 8 15.598 8 .997 0 1.863-.133 2.638-.361-2.485-1.164-5.337-5.278-5.337-13.336z" fill="#a4d4a0"/><path d="m197.698 152h-39.401c1.993 0 3.609 3.717 3.609 8.302 0 8.067-2.859 12.181-5.346 13.34.772.226 1.636.358 2.629.358 7.801 0 7.801-8 15.602-8 7.802 0 7.802 8 15.604 8 6.096 0 15.604-4 15.604-13.698.001-4.585-3.716-8.302-8.301-8.302z" fill="#419b46"/><path d="m158.297 152h-60.594c-1.993 0-3.609 3.717-3.609 8.302v.001c0 8.058 2.852 12.172 5.337 13.336 1.957-.576 3.31-1.771 4.582-3.05 1.508-1.517 2.918-3.134 5.077-3.984.937-.369 2.005-.604 3.302-.604 2.83 0 4.629 1.057 6.15 2.399 2.672 2.357 4.48 5.601 9.45 5.601h.003.001c.001 0 .002-.001.004-.001 4.967-.004 6.773-3.25 9.446-5.606 1.52-1.339 3.317-2.393 6.141-2.393 1.302 0 2.372.237 3.312.608 2.166.856 3.579 2.485 5.095 4.007 1.266 1.271 2.616 2.456 4.565 3.027 2.487-1.159 5.346-5.273 5.346-13.34.001-4.586-1.615-8.303-3.608-8.303z" fill="#65bc49"/></g><g><path d="m190.396 177c-5.166 0-7.818-2.72-9.949-4.905-1.983-2.034-3.136-3.095-5.655-3.095s-3.67 1.061-5.653 3.095c-2.131 2.186-4.784 4.905-9.949 4.905s-7.817-2.72-9.949-4.906c-1.983-2.033-3.135-3.094-5.653-3.094-2.517 0-3.668 1.061-5.649 3.094-2.131 2.186-4.782 4.906-9.947 4.906s-7.817-2.72-9.948-4.906c-1.982-2.033-3.134-3.094-5.652-3.094s-3.669 1.061-5.651 3.094c-2.13 2.186-4.782 4.906-9.947 4.906s-7.816-2.72-9.947-4.906c-1.982-2.033-3.134-3.094-5.651-3.094s-3.668 1.061-5.65 3.094c-2.131 2.186-4.783 4.906-9.947 4.906-7.723 0-18.599-5.18-18.599-16.697 0-6.233 5.07-11.303 11.302-11.303h139.396c6.232 0 11.302 5.07 11.302 11.302 0 11.517-10.879 16.698-18.604 16.698zm-15.604-14c5.166 0 7.818 2.72 9.95 4.906 1.983 2.033 3.135 3.094 5.654 3.094 4.112 0 12.604-2.615 12.604-10.698 0-2.924-2.378-5.302-5.302-5.302h-139.396c-2.924 0-5.302 2.378-5.302 5.302 0 8.083 8.488 10.698 12.599 10.698 2.517 0 3.668-1.061 5.649-3.094 2.131-2.186 4.782-4.906 9.947-4.906s7.816 2.72 9.947 4.906c1.982 2.033 3.134 3.094 5.651 3.094s3.668-1.061 5.651-3.094c2.13-2.186 4.783-4.906 9.947-4.906 5.165 0 7.817 2.72 9.948 4.906 1.982 2.033 3.134 3.094 5.652 3.094 2.517 0 3.668-1.061 5.65-3.094 2.131-2.186 4.782-4.906 9.946-4.906 5.165 0 7.817 2.72 9.949 4.906 1.983 2.033 3.135 3.094 5.653 3.094s3.67-1.061 5.653-3.094c2.132-2.186 4.784-4.906 9.95-4.906z" fill="#1c2d6b"/></g><g><path d="m102.615 130.967v-11.935c0-1.675 1.358-3.033 3.033-3.033h-38.758c-2.701 0-4.89 2.189-4.89 4.89v8.22c0 2.701 2.189 4.89 4.89 4.89h38.758c-1.675.001-3.033-1.357-3.033-3.032z" fill="#ef7f72"/><path d="m189.11 116h-38.758c1.675 0 3.033 1.358 3.033 3.033v11.935c0 1.675-1.358 3.033-3.033 3.033h38.758c2.701 0 4.89-2.189 4.89-4.89v-8.22c0-2.702-2.189-4.891-4.89-4.891z" fill="#e8383b"/><path d="m153.385 130.967v-11.935c0-1.675-1.358-3.033-3.033-3.033h-44.704c-1.675 0-3.033 1.358-3.033 3.033v11.935c0 1.675 1.358 3.033 3.033 3.033h44.704c1.675 0 3.033-1.358 3.033-3.033z" fill="#e95947"/></g><g><path d="m194 134h-43.442c4.11 0 7.442 3.332 7.442 7.442v9.116c0 4.11-3.332 7.442-7.442 7.442h43.442c6.627 0 12-5.373 12-12s-5.373-12-12-12z" fill="#e8383b"/><path d="m98 150.558v-9.116c0-4.11 3.332-7.442 7.442-7.442h-43.442c-6.627 0-12 5.373-12 12s5.373 12 12 12h43.442c-4.11 0-7.442-3.332-7.442-7.442z" fill="#ef7f72"/><path d="m158 150.558v-9.116c0-4.11-3.332-7.442-7.442-7.442h-45.116c-4.11 0-7.442 3.332-7.442 7.442v9.116c0 4.11 3.332 7.442 7.442 7.442h45.116c4.11 0 7.442-3.332 7.442-7.442z" fill="#e95947"/></g><g><path d="m189.11 137h-122.22c-4.351 0-7.89-3.54-7.89-7.89v-8.22c0-4.351 3.54-7.89 7.89-7.89h122.22c4.351 0 7.89 3.54 7.89 7.89v8.22c0 4.35-3.54 7.89-7.89 7.89zm-122.22-18c-1.042 0-1.89.848-1.89 1.89v8.22c0 1.042.848 1.89 1.89 1.89h122.22c1.042 0 1.89-.848 1.89-1.89v-8.22c0-1.042-.848-1.89-1.89-1.89z" fill="#1c2d6b"/></g><g><path d="m94.094 112.303c0-4.586 1.616-8.303 3.609-8.303h-39.401c-4.585 0-8.302 3.717-8.302 8.302v.001c0 9.697 9.506 13.697 15.599 13.697 7.798 0 7.798-8 15.596-8 7.799 0 7.799 8 15.598 8 .997 0 1.863-.133 2.638-.361-2.485-1.164-5.337-5.278-5.337-13.336z" fill="#a4d4a0"/><path d="m197.698 104h-39.401c1.993 0 3.609 3.717 3.609 8.302 0 8.067-2.859 12.181-5.346 13.34.772.226 1.636.358 2.629.358 7.801 0 7.801-8 15.602-8 7.802 0 7.802 8 15.604 8 6.096 0 15.604-4 15.604-13.698.001-4.585-3.716-8.302-8.301-8.302z" fill="#419b46"/><path d="m158.297 104h-60.594c-1.993 0-3.609 3.717-3.609 8.302v.001c0 8.058 2.852 12.172 5.337 13.336 1.957-.576 3.31-1.771 4.582-3.05 1.508-1.517 2.918-3.134 5.077-3.984.937-.369 2.005-.604 3.302-.604 2.83 0 4.629 1.057 6.15 2.399 2.672 2.357 4.48 5.601 9.45 5.601h.003.001c.001 0 .002-.001.004-.001 4.967-.004 6.773-3.25 9.446-5.606 1.52-1.339 3.317-2.393 6.141-2.393 1.302 0 2.372.237 3.312.608 2.166.856 3.579 2.485 5.095 4.007 1.266 1.271 2.616 2.456 4.565 3.027 2.487-1.159 5.346-5.273 5.346-13.34.001-4.586-1.615-8.303-3.608-8.303z" fill="#65bc49"/></g><g><path d="m190.396 129c-5.166 0-7.818-2.72-9.949-4.905-1.983-2.034-3.136-3.095-5.655-3.095s-3.67 1.061-5.653 3.095c-2.131 2.186-4.784 4.905-9.949 4.905s-7.817-2.72-9.949-4.906c-1.983-2.033-3.135-3.094-5.653-3.094-2.517 0-3.668 1.061-5.649 3.094-2.131 2.186-4.782 4.906-9.947 4.906s-7.817-2.72-9.948-4.906c-1.982-2.033-3.134-3.094-5.652-3.094s-3.669 1.061-5.651 3.094c-2.13 2.186-4.782 4.906-9.947 4.906s-7.816-2.72-9.947-4.906c-1.982-2.033-3.134-3.094-5.651-3.094s-3.668 1.061-5.65 3.094c-2.131 2.186-4.783 4.906-9.947 4.906-7.723 0-18.599-5.18-18.599-16.697 0-6.233 5.07-11.303 11.302-11.303h139.396c6.232 0 11.302 5.07 11.302 11.302 0 11.517-10.879 16.698-18.604 16.698zm-15.604-14c5.166 0 7.818 2.72 9.95 4.906 1.983 2.033 3.135 3.094 5.654 3.094 4.112 0 12.604-2.615 12.604-10.698 0-2.924-2.378-5.302-5.302-5.302h-139.396c-2.924 0-5.302 2.378-5.302 5.302 0 8.083 8.488 10.698 12.599 10.698 2.517 0 3.668-1.061 5.649-3.094 2.131-2.186 4.782-4.906 9.947-4.906s7.816 2.72 9.947 4.906c1.982 2.033 3.134 3.094 5.651 3.094s3.668-1.061 5.651-3.094c2.13-2.186 4.783-4.906 9.947-4.906 5.165 0 7.817 2.72 9.948 4.906 1.982 2.033 3.134 3.094 5.652 3.094 2.517 0 3.668-1.061 5.65-3.094 2.131-2.186 4.782-4.906 9.946-4.906 5.165 0 7.817 2.72 9.949 4.906 1.983 2.033 3.135 3.094 5.653 3.094s3.67-1.061 5.653-3.094c2.132-2.186 4.784-4.906 9.95-4.906z" fill="#1c2d6b"/></g><g><path d="m194 161h-132c-8.271 0-15-6.729-15-15s6.729-15 15-15h132c8.271 0 15 6.729 15 15s-6.729 15-15 15zm-132-24c-4.962 0-9 4.038-9 9s4.038 9 9 9h132c4.962 0 9-4.038 9-9s-4.038-9-9-9z" fill="#1c2d6b"/></g><g><path d="m68 134 45 24-11.616-24z" fill="#ede49d"/><path d="m124.616 134-11.616 24 45-24z" fill="#d3ba2a"/><path d="m101.384 134 11.616 24 11.616-24z" fill="#eee045"/></g><g><path d="m113 161c-.485 0-.971-.118-1.412-.353l-45-24c-1.215-.648-1.833-2.039-1.499-3.375.334-1.335 1.535-2.272 2.911-2.272h90c1.376 0 2.577.937 2.911 2.272.333 1.335-.284 2.727-1.499 3.375l-45 24c-.441.235-.927.353-1.412.353zm-33-24 33 17.6 33-17.6z" fill="#1c2d6b"/></g><g><path d="m128 134 26.523 14.146-5.145-14.146z" fill="#ede49d"/><path d="m159.669 134-5.146 14.146 26.524-14.146z" fill="#d3ba2a"/><path d="m149.378 134 5.145 14.146 5.146-14.146z" fill="#eee045"/></g><g><path d="m154.523 151.146c-.485 0-.971-.118-1.412-.353l-26.523-14.146c-1.215-.648-1.833-2.039-1.499-3.375.334-1.335 1.534-2.272 2.911-2.272h53.047c1.376 0 2.577.937 2.911 2.272.333 1.335-.284 2.727-1.499 3.375l-26.523 14.146c-.442.235-.927.353-1.413.353zm-14.523-14.146 14.523 7.746 14.524-7.746z" fill="#1c2d6b"/></g><g><path d="m98 107.012v-21.729c0-16.173 13.11-29.283 29.283-29.283h-25.918c-25.054 0-45.365 20.311-45.365 45.365v4.006c0 2.557 2.073 4.629 4.629 4.629h40.359c-1.65 0-2.988-1.338-2.988-2.988z" fill="#ede49d"/><path d="m154.635 56h-25.918c16.173 0 29.283 13.11 29.283 29.283v21.729c0 1.65-1.338 2.988-2.988 2.988h40.359c2.557 0 4.629-2.073 4.629-4.629v-4.006c0-25.054-20.311-45.365-45.365-45.365z" fill="#d3ba2a"/><path d="m158 107.012v-21.729c0-16.173-13.11-29.283-29.283-29.283h-1.434c-16.173 0-29.283 13.11-29.283 29.283v21.729c0 1.65 1.338 2.988 2.988 2.988h54.024c1.65 0 2.988-1.338 2.988-2.988z" fill="#eee045"/></g><g><path d="m195.371 113h-134.742c-4.207 0-7.629-3.422-7.629-7.629v-4.006c0-26.668 21.697-48.365 48.365-48.365h53.27c26.668 0 48.365 21.697 48.365 48.365v4.006c0 4.207-3.422 7.629-7.629 7.629zm-94.006-54c-23.36 0-42.365 19.005-42.365 42.365v4.006c0 .898.731 1.629 1.629 1.629h134.742c.898 0 1.629-.731 1.629-1.629v-4.006c0-23.36-19.005-42.365-42.365-42.365z" fill="#1c2d6b"/></g><g fill="#1c2d6b"><g><path d="m164 69.234-.984 1.575c-.725 1.161-1.11 2.502-1.11 3.87 0 1.157.938 2.094 2.094 2.094 1.157 0 2.094-.938 2.094-2.094 0-1.369-.385-2.71-1.11-3.87z"/><path d="m140 69.234-.984 1.575c-.725 1.161-1.11 2.502-1.11 3.87 0 1.157.938 2.094 2.094 2.094 1.157 0 2.094-.938 2.094-2.094 0-1.369-.385-2.71-1.11-3.87z"/><path d="m116 69.234-.984 1.575c-.725 1.161-1.11 2.502-1.11 3.87 0 1.157.938 2.094 2.094 2.094 1.157 0 2.094-.938 2.094-2.094 0-1.369-.385-2.71-1.11-3.87z"/><path d="m92 69.234-.984 1.575c-.725 1.161-1.11 2.502-1.11 3.87 0 1.157.938 2.094 2.094 2.094 1.157 0 2.094-.938 2.094-2.094 0-1.369-.385-2.71-1.11-3.87z"/></g><g><path d="m152 88.23-.984 1.575c-.725 1.161-1.11 2.502-1.11 3.87 0 1.157.938 2.094 2.094 2.094 1.157 0 2.094-.938 2.094-2.094 0-1.369-.385-2.71-1.11-3.87z"/><path d="m128 88.23-.984 1.575c-.725 1.161-1.11 2.502-1.11 3.87 0 1.157.938 2.094 2.094 2.094 1.157 0 2.094-.938 2.094-2.094 0-1.369-.385-2.71-1.11-3.87z"/><path d="m104 88.23-.984 1.575c-.725 1.161-1.11 2.502-1.11 3.87 0 1.157.938 2.094 2.094 2.094 1.157 0 2.094-.938 2.094-2.094 0-1.369-.385-2.71-1.11-3.87z"/></g></g></g></g></svg>